<?xml version="1.0" encoding="utf-8"?>
<!-- Generator: Adobe Illustrator 16.0.0, SVG Export Plug-In . SVG Version: 6.00 Build 0)  -->
<!DOCTYPE svg PUBLIC "-//W3C//DTD SVG 1.1//EN" "http://www.w3.org/Graphics/SVG/1.1/DTD/svg11.dtd">
<svg version="1.1" id="Layer_1" xmlns="http://www.w3.org/2000/svg" xmlns:xlink="http://www.w3.org/1999/xlink" x="0px" y="0px"
	 width="1024px" height="512px" viewBox="0 0 1024 512" enable-background="new 0 0 1024 512" xml:space="preserve">
<g>
	<path d="M107.981,142.209c16.777,0,37.226,6.816,37.226,6.816l-11.534,24.643c0,0-10.736-2.36-22.009-2.36
		c-8.14,0-40.908,8.652-40.908,40.896c0,50.858,42.73,44.829,42.73,44.829v-36.964h41.421v59.771c0,0-16.778,7.079-42.076,7.079
		c-30.542,0-85.332-13.109-85.332-75.764C27.5,152.958,86.747,142.209,107.981,142.209z"/>
	<path d="M276.547,239.47c0,0,7.341-57.674-47.975-57.674c-4.981,0-55.314,4.194-55.314,48.761c0,48.237,39.848,56.363,62.13,56.363
		c20.449,0,41.159-10.748,41.159-10.748l-10.224-20.449c0,0-6.554,6.816-26.478,6.816c-25.167,0-24.643-23.069-24.643-23.069
		H276.547z M228.573,198.574c15.468,0,14.157,24.38,14.157,24.38h-27.527C215.203,222.955,214.155,198.574,228.573,198.574z"/>
	<path d="M348.902,181.796c-27.002,0-57.936,15.992-57.936,51.383s24.38,53.741,59.771,53.741c31.196,0,56.102-21.496,56.102-55.577
		S375.379,181.796,348.902,181.796z M348.902,269.094c-5.767,0-17.041-7.867-17.041-34.736c0-26.871,10.487-33.949,17.041-33.949
		c7.865,0,15.991,7.077,15.991,33.949C364.893,261.229,354.669,269.094,348.902,269.094z"/>
	<path d="M481.683,181.796c15.926,0,32.835,9.501,32.835,9.501l-10.42,20.448c0,0-7.275-3.932-16.319-3.932
		c-9.044,0-25.561,5.116-25.561,26.545c0,21.429,17.499,26.738,26.15,26.738c8.651,0,15.925-4.13,15.925-4.13l10.224,21.432
		c0,0-14.942,8.522-35.981,8.522c-21.038,0-58.395-10.288-58.395-52.562C420.142,194.835,462.021,181.796,481.683,181.796z"/>
	<path d="M584.316,183.235c-38.144,0-57.608,32.441-57.608,58.001c0,30.672,23.004,128.587,57.608,128.587
		c35.194,0,58.591-99.292,58.591-128.587C642.907,209.975,615.774,183.235,584.316,183.235z M584.809,277.905
		c-19.654,0-35.588-15.934-35.588-35.587c0-19.655,15.934-35.588,35.588-35.588c19.653,0,35.587,15.933,35.587,35.588
		C620.396,261.972,604.462,277.905,584.809,277.905z"/>
	<path d="M733.744,141.16v58.886c0,0-10.224-15.188-29.935-15.188c-21.234,0-46.352,16.466-46.352,51.464
		c0,38.929,23.199,53.775,44.828,53.775c20.448,0,31.458-14.157,31.458-14.157v12.19h39.127V141.16H733.744z M717.623,269.353
		c-6.685,0-17.827-8.65-17.827-32.245c0-23.594,8.915-30.803,16.647-30.803c7.208,0,17.696,6.03,17.696,31.065
		C734.14,262.405,724.309,269.353,717.623,269.353z"/>
	<path d="M896.281,242.616c0,0,7.339-57.674-47.975-57.674c-4.981,0-55.314,4.195-55.314,48.761
		c0,48.237,39.847,56.363,62.13,56.363c20.448,0,41.159-10.748,41.159-10.748l-10.225-20.448c0,0-6.554,6.815-26.478,6.815
		c-25.168,0-24.642-23.068-24.642-23.068H896.281z M848.307,201.72c15.467,0,14.156,24.38,14.156,24.38h-27.525
		C834.938,226.101,833.888,201.72,848.307,201.72z"/>
	<path d="M918.563,187.561h39.421v22.119c0,0,9.143-24.675,24.872-24.675c8.651,0,19.269,7.865,19.269,7.865l-11.404,30.672
		c0,0-3.834-2.949-11.403-2.949c-17.793,0-21.038,16.911-21.038,16.911v50.528h-39.716V187.561z"/>
	<path fill="#3399CC" d="M662.176,296.093h43.256c0,0,14.418,1.049,14.418,15.14c0,33.491-42.73,33.424-42.73,33.424l3.637-13.566
		c0,0,15.828-2.604,15.828-14.549c0-8.651-14.746-5.701-14.746-5.701l-14.942,60.557h-23.005L662.176,296.093z"/>
	<path fill="#3399CC" d="M822.531,296.093h43.256c0,0,14.419,1.049,14.419,15.14c0,33.491-42.732,33.424-42.732,33.424l3.638-13.566
		c0,0,15.828-2.604,15.828-14.549c0-8.651-14.746-5.701-14.746-5.701l-14.942,60.557h-23.005L822.531,296.093z"/>
	<polygon fill="#3399CC" points="736.104,296.093 759.697,296.093 753.013,322.242 776.214,322.242 783.685,296.093 806.1,296.093
		787.224,371.396 763.434,371.396 772.871,337.186 749.277,337.186 740.429,371.396 717.426,371.396 	"/>
</g>
</svg>
